<svg width="17" height="16" viewBox="0 0 17 16" fill="none" xmlns="http://www.w3.org/2000/svg">
<path d="M15.6806 5.35969L11.3114 4.69375L9.35884 0.556562C9.18332 0.186875 8.84093 0 8.49855 0C8.15825 0 7.81826 0.184375 7.64214 0.556562L5.68903 4.69344L1.31953 5.35875C0.535953 5.4775 0.221927 6.48656 0.78998 7.06469L3.95084 10.2834L3.20279 14.8297C3.09652 15.4791 3.59174 16 4.14636 16C4.29352 16 4.44486 15.9634 4.59024 15.8828L8.49915 13.7366L12.4078 15.8834C12.5528 15.9631 12.7039 15.9994 12.8504 15.9994C13.4057 15.9994 13.9018 15.4803 13.7955 14.8306L13.0483 10.2841L16.2098 7.06594C16.7782 6.48781 16.4641 5.47844 15.6806 5.35969ZM12.0466 9.20969L11.5057 9.76031L11.6334 10.5378L12.2161 14.0831L9.1675 12.4084L8.49944 12.0416L8.50034 2.12937L10.0236 5.35719L10.3573 6.06437L11.1039 6.17812L14.5137 6.69781L12.0466 9.20969Z" fill="#FBB224"/>
</svg>
